<svg width="80" height="80" viewBox="0 0 80 80" fill="none" xmlns="http://www.w3.org/2000/svg">
<path d="M76.733 35.4092C75.8487 28.1815 72.8744 21.5915 68.4274 16.2685C68.8003 15.6377 69.0189 14.9039 69.0189 14.1172C69.0189 11.7784 67.1226 9.882 64.7829 9.882C63.9304 9.882 63.1377 10.1362 62.4728 10.5703C57.0976 6.45915 50.5673 3.79047 43.4592 3.14145C42.9758 1.33359 41.3313 0 39.3714 0C37.3517 0 35.6649 1.41528 35.2413 3.30711C28.3964 4.2065 22.1369 6.98336 16.9985 11.1082C16.3139 10.6331 15.4841 10.3533 14.5878 10.3533C12.2489 10.3533 10.3525 12.2489 10.3525 14.5885C10.3525 15.4947 10.6392 16.3321 11.1241 17.0212C7.02043 22.1989 4.2761 28.4947 3.42738 35.3729C1.47504 35.7504 0 37.4667 0 39.5295C0 41.556 1.42436 43.2481 3.32602 43.6641C4.03404 50.6657 6.71029 57.09 10.7829 62.3888C10.3139 63.0696 10.0386 63.8941 10.0386 64.7837C10.0386 67.1233 11.935 69.0197 14.2738 69.0197C15.1044 69.0197 15.8775 68.7769 16.531 68.3638C21.7474 72.6891 28.1694 75.5998 35.2088 76.5325C35.5704 78.5038 37.2943 80 39.3707 80C41.3881 80 43.0741 78.5877 43.4993 76.6982C50.6717 76.0363 57.2534 73.3132 62.6521 69.1309C63.3124 69.5552 64.0953 69.8048 64.938 69.8048C67.2776 69.8048 69.1732 67.9077 69.1732 65.5688C69.1732 64.7768 68.9516 64.0378 68.5734 63.4032C73.1059 57.9115 76.0847 51.0923 76.8306 43.6248C78.6505 43.1498 79.997 41.4992 79.997 39.531C79.9985 37.5234 78.6044 35.848 76.733 35.4092ZM64.7829 18.3525C65.6498 18.3525 66.4569 18.0908 67.1286 17.643C71.2216 22.6051 73.9698 28.711 74.8351 35.3986C73.6876 35.6558 72.7194 36.3782 72.1324 37.357L61.3147 33.3003C61.3253 33.1808 61.3328 33.062 61.3328 32.9395C61.3328 31.5098 60.6233 30.2489 59.5386 29.4818L64.2723 18.3177C64.4403 18.3389 64.6105 18.3525 64.7829 18.3525ZM62.4977 17.6793L57.7965 28.7678C57.5688 28.73 57.3359 28.705 57.0976 28.705C55.2806 28.705 53.7345 29.8525 53.1339 31.4599L33.5673 26.9531C33.5658 26.6641 33.5356 26.382 33.4781 26.1097L61.2451 16.441C61.5711 16.9365 61.9985 17.3578 62.4977 17.6793ZM39.3722 8.46974C41.438 8.46974 43.1551 6.99017 43.5295 5.03404C50.1067 5.68003 56.1536 8.15053 61.1611 11.9312C60.7753 12.5696 60.5484 13.3162 60.5484 14.1172C60.5484 14.3071 60.5651 14.4932 60.59 14.6762L32.6823 24.3941C32.4599 24.1067 32.2027 23.8495 31.9145 23.6278L39.236 8.46369C39.2814 8.46445 39.326 8.46974 39.3722 8.46974ZM35.2527 5.20272C35.534 6.40318 36.3222 7.40771 37.3828 7.97352L30.2073 22.8359C29.9251 22.7761 29.6331 22.7443 29.3328 22.7443C28.4349 22.7443 27.6044 23.0257 26.9198 23.5015L18.413 16.3979C18.6732 15.848 18.8238 15.236 18.8238 14.587C18.8238 13.8275 18.621 13.1165 18.2708 12.5C23.0711 8.67473 28.8903 6.08321 35.2527 5.20272ZM8.36763 38.6082L25.9614 29.5348C26.7284 30.5454 27.9357 31.2027 29.2996 31.2133L35.3291 50.4879C34.9645 50.7784 34.6498 51.1271 34.3971 51.5197L8.31619 40.6528C8.41452 40.2943 8.47201 39.9183 8.47201 39.5287C8.4705 39.2118 8.43344 38.9047 8.36763 38.6082ZM12.5235 18.2837C13.1346 18.6256 13.8381 18.8222 14.5878 18.8222C15.5968 18.8222 16.5219 18.4682 17.2496 17.879L25.649 24.8933C25.2996 25.5091 25.0976 26.2201 25.0976 26.9788C25.0976 27.2663 25.1271 27.5469 25.1815 27.8185L7.55825 36.9077C6.99773 36.1982 6.21634 35.6747 5.31619 35.4372C6.13994 29.0166 8.70424 23.1369 12.5235 18.2837ZM14.2746 60.5476C13.5083 60.5476 12.792 60.7534 12.1717 61.1097C8.39713 56.1505 5.91074 50.1619 5.21937 43.6437C6.08623 43.438 6.84796 42.966 7.41679 42.3177L33.7587 53.2943C33.739 53.4614 33.7254 53.6301 33.7254 53.8026C33.7254 54.3056 33.8177 54.7852 33.9781 55.233L18.0477 62.8669C17.348 61.4909 15.9228 60.5476 14.2746 60.5476ZM35.2912 74.6437C28.7353 73.7443 22.7496 71.0325 17.8646 67.0212C18.2708 66.3722 18.5098 65.6059 18.5098 64.7822C18.5098 64.7663 18.5076 64.7496 18.5076 64.733L35.0015 56.8298C35.4236 57.2428 35.9327 57.565 36.4977 57.7731L37.4841 71.9758C36.4191 72.5076 35.612 73.4735 35.2912 74.6437ZM37.0454 49.6694L31.1437 30.8041C32.0265 30.3858 32.7383 29.6725 33.1573 28.7905L52.882 33.3336C52.9478 34.0401 53.1853 34.6959 53.5552 35.2587L40.0265 50.1074C39.4145 49.7648 38.711 49.5673 37.9607 49.5673C37.646 49.5673 37.3404 49.6044 37.0454 49.6694ZM43.4962 74.8094C43.0628 72.9304 41.3828 71.528 39.3722 71.528C39.3608 71.528 39.351 71.5295 39.3404 71.5295L38.4017 58.0144C39.413 57.91 40.3185 57.4486 40.9909 56.7587L60.7111 65.4591C60.7103 65.4955 60.7058 65.531 60.7058 65.5673C60.7058 66.3782 60.9372 67.1324 61.3321 67.7761C56.2829 71.6377 50.1611 74.1619 43.4962 74.8094ZM61.1853 63.6104L41.9773 55.1362C42.1173 54.7163 42.1952 54.2693 42.1952 53.8018C42.1952 52.8956 41.9077 52.0567 41.4229 51.3684L54.9123 36.5628C55.5507 36.9486 56.2965 37.1747 57.0976 37.1747C57.2731 37.1747 57.4463 37.1604 57.6165 37.1399L62.6581 62.003C62.0378 62.4009 61.528 62.9546 61.1853 63.6104ZM67.2625 62.0272C66.5961 61.5893 65.798 61.3321 64.941 61.3321C64.7738 61.3321 64.6105 61.3449 64.4486 61.3623L59.4055 36.4894C59.9516 36.1339 60.4062 35.6566 60.7398 35.0953L71.5492 39.1483C71.5371 39.2738 71.5303 39.4002 71.5303 39.528C71.5303 41.5825 72.9932 43.2943 74.9327 43.68C74.1914 50.5915 71.4342 56.907 67.2625 62.0272Z" fill="white"/>
</svg>
